<svg width="128" height="128" viewBox="0 0 128 128" fill="none" xmlns="http://www.w3.org/2000/svg">
<path d="M63.1536 63.1537H114.282C115.173 63.1537 115.619 64.2308 114.989 64.8608L110.867 68.9825C110.314 69.5357 109.564 69.8465 108.781 69.8465C87.2782 69.8465 69.8464 87.2783 69.8464 108.782C69.8464 109.564 69.5356 110.314 68.9825 110.867L64.8607 114.989C64.2307 115.619 63.1536 115.173 63.1536 114.282V63.1537Z" fill="url(#paint0_linear_103_36)"/>
<path d="M60.5425 60.5425H9.41421C8.52331 60.5425 8.07714 59.4653 8.7071 58.8354L12.8289 54.7136C13.382 54.1604 14.1323 53.8497 14.9146 53.8497C36.4178 53.8497 53.8497 36.4178 53.8497 14.9146C53.8497 14.1323 54.1604 13.382 54.7136 12.8289L58.8354 8.7071C59.4653 8.07714 60.5425 8.5233 60.5425 9.41421V60.5425Z" fill="url(#paint1_linear_103_36)"/>
<mask id="path-3-inside-1_103_36" fill="white">
<path d="M63.1536 60.6537V9.52539C63.1536 8.63448 64.2307 8.18831 64.8607 8.81828L68.9825 12.9401C69.5356 13.4932 69.8464 14.2435 69.8464 15.0258C69.8464 36.529 87.2782 53.9608 108.781 53.9608C109.564 53.9608 110.314 54.2716 110.867 54.8248L114.989 58.9465C115.619 59.5765 115.173 60.6537 114.282 60.6537H63.1536Z"/>
</mask>
<path d="M63.1536 60.6537V9.52539C63.1536 8.63448 64.2307 8.18831 64.8607 8.81828L68.9825 12.9401C69.5356 13.4932 69.8464 14.2435 69.8464 15.0258C69.8464 36.529 87.2782 53.9608 108.781 53.9608C109.564 53.9608 110.314 54.2716 110.867 54.8248L114.989 58.9465C115.619 59.5765 115.173 60.6537 114.282 60.6537H63.1536Z" fill="url(#paint2_linear_103_36)"/>
<path d="M63.1536 60.6537H27.1536V96.6537H63.1536V60.6537ZM68.9825 12.9401L43.5266 38.3959L68.9825 12.9401ZM110.867 54.8248L85.4114 80.2806L110.867 54.8248ZM114.989 58.9465L140.445 33.4907L114.989 58.9465ZM64.8607 8.81828L90.3165 -16.6376L64.8607 8.81828ZM63.1536 60.6537H99.1536V9.52539H63.1536H27.1536V60.6537H63.1536ZM114.282 60.6537V24.6537H63.1536V60.6537V96.6537H114.282V60.6537ZM110.867 54.8248L85.4114 80.2806L89.5331 84.4024L114.989 58.9465L140.445 33.4907L136.323 29.3689L110.867 54.8248ZM64.8607 8.81828L39.4049 34.2741L43.5266 38.3959L68.9825 12.9401L94.4383 -12.5158L90.3165 -16.6376L64.8607 8.81828ZM68.9825 12.9401L43.5266 38.3959C37.3285 32.1978 33.8464 23.7913 33.8464 15.0258H69.8464H105.846C105.846 4.69566 101.743 -5.21133 94.4383 -12.5158L68.9825 12.9401ZM108.781 53.9608V89.9608C100.016 89.9608 91.6095 86.4788 85.4114 80.2806L110.867 54.8248L136.323 29.3689C129.019 22.0645 119.112 17.9608 108.781 17.9608V53.9608ZM114.282 60.6537V96.6537C147.245 96.6537 163.753 56.7993 140.445 33.4907L114.989 58.9465L89.5331 84.4024C67.4844 62.3537 83.1001 24.6537 114.282 24.6537V60.6537ZM108.781 53.9608V17.9608C107.16 17.9608 105.846 16.6468 105.846 15.0258H69.8464H33.8464C33.8464 56.4113 67.396 89.9608 108.781 89.9608V53.9608ZM63.1536 9.52539H99.1536C99.1536 40.7069 61.4538 56.323 39.4049 34.2741L64.8607 8.81828L90.3165 -16.6376C67.0077 -39.9464 27.1536 -23.4379 27.1536 9.52539H63.1536Z" fill="#868686" mask="url(#path-3-inside-1_103_36)"/>
<mask id="path-5-inside-2_103_36" fill="white">
<path d="M60.6536 63.1537V114.282C60.6536 115.173 59.5765 115.619 58.9465 114.989L54.8247 110.867C54.2715 110.314 53.9608 109.564 53.9608 108.782C53.9608 87.2783 36.529 69.8465 15.0257 69.8465C14.2434 69.8465 13.4932 69.5357 12.94 68.9825L8.81822 64.8608C8.18825 64.2308 8.63442 63.1537 9.52532 63.1537H60.6536Z"/>
</mask>
<path d="M60.6536 63.1537V114.282C60.6536 115.173 59.5765 115.619 58.9465 114.989L54.8247 110.867C54.2715 110.314 53.9608 109.564 53.9608 108.782C53.9608 87.2783 36.529 69.8465 15.0257 69.8465C14.2434 69.8465 13.4932 69.5357 12.94 68.9825L8.81822 64.8608C8.18825 64.2308 8.63442 63.1537 9.52532 63.1537H60.6536Z" fill="url(#paint3_linear_103_36)"/>
<path d="M60.6536 63.1537H108.654V15.1537H60.6536V63.1537ZM54.8247 110.867L88.7658 76.9261L54.8247 110.867ZM12.94 68.9825L46.8811 35.0414L12.94 68.9825ZM8.81822 64.8608L-25.1229 98.8019L8.81822 64.8608ZM58.9465 114.989L25.0054 148.93L58.9465 114.989ZM60.6536 63.1537H12.6536V114.282H60.6536H108.654V63.1537H60.6536ZM9.52533 63.1537V111.154H60.6536V63.1537V15.1537H9.52533V63.1537ZM12.94 68.9825L46.8811 35.0414L42.7593 30.9196L8.81822 64.8608L-25.1229 98.8019L-21.0011 102.924L12.94 68.9825ZM58.9465 114.989L92.8876 81.0479L88.7658 76.9261L54.8247 110.867L20.8836 144.808L25.0054 148.93L58.9465 114.989ZM54.8247 110.867L88.7658 76.9261C97.2144 85.3747 101.961 96.8334 101.961 108.782H53.9608H5.96078C5.96078 122.294 11.3287 135.253 20.8836 144.808L54.8247 110.867ZM15.0257 69.8465V21.8465C26.9738 21.8465 38.4325 26.5928 46.8811 35.0414L12.94 68.9825L-21.0011 102.924C-11.4462 112.479 1.513 117.846 15.0257 117.846V69.8465ZM9.52533 63.1537V15.1537C-34.1291 15.1537 -55.9911 67.9337 -25.1229 98.8019L8.81822 64.8608L42.7593 30.9196C72.3676 60.5279 51.398 111.154 9.52533 111.154V63.1537ZM15.0257 69.8465V117.846C10.0193 117.846 5.96078 113.788 5.96078 108.782H53.9608H101.961C101.961 60.7686 63.0386 21.8465 15.0257 21.8465V69.8465ZM60.6536 114.282H12.6536C12.6536 72.4096 63.2791 51.4394 92.8876 81.0479L58.9465 114.989L25.0054 148.93C55.8738 179.799 108.654 157.936 108.654 114.282H60.6536Z" fill="#808080" mask="url(#path-5-inside-2_103_36)"/>
<defs>
<linearGradient id="paint0_linear_103_36" x1="61.4804" y1="63.1537" x2="114.465" y2="114.465" gradientUnits="userSpaceOnUse">
<stop stop-color="#FF8C00"/>
<stop offset="0.692308" stop-color="#F7FF00"/>
</linearGradient>
<linearGradient id="paint1_linear_103_36" x1="62.2157" y1="60.5425" x2="9.23093" y2="9.23094" gradientUnits="userSpaceOnUse">
<stop stop-color="#FF8C00"/>
<stop offset="0.692308" stop-color="#F7FF00"/>
</linearGradient>
<linearGradient id="paint2_linear_103_36" x1="63.1536" y1="62.3269" x2="114.465" y2="9.34211" gradientUnits="userSpaceOnUse">
<stop stop-color="#FF00EE"/>
<stop offset="0.658654" stop-color="#FF9D00"/>
</linearGradient>
<linearGradient id="paint3_linear_103_36" x1="60.6536" y1="61.4805" x2="9.34205" y2="114.465" gradientUnits="userSpaceOnUse">
<stop stop-color="#FF00EE"/>
<stop offset="0.658654" stop-color="#FF9D00"/>
</linearGradient>
</defs>
</svg>
