<svg width="128" height="128" viewBox="0 0 128 128" fill="none" xmlns="http://www.w3.org/2000/svg">
<rect width="128" height="128" fill="black"/>
<path d="M63.1536 63.1537H116.696L110.003 69.8465C87.8252 69.8465 69.8464 87.8253 69.8464 110.003L63.1536 116.696V63.1537Z" fill="url(#paint0_linear_103_36)"/>
<mask id="path-3-inside-1_103_36" fill="white">
<path d="M63.1536 60.6537V7.11117L69.8464 13.804C69.8464 35.982 87.8252 53.9608 110.003 53.9608L116.696 60.6537H63.1536Z"/>
</mask>
<path d="M63.1536 60.6537V7.11117L69.8464 13.804C69.8464 35.982 87.8252 53.9608 110.003 53.9608L116.696 60.6537H63.1536Z" fill="url(#paint1_linear_103_36)"/>
<path d="M63.1536 60.6537H27.1536V96.6537H63.1536V60.6537ZM63.1536 7.11117L88.6094 -18.3447L27.1536 -79.8005V7.11117H63.1536ZM116.696 60.6537V96.6537H203.608L142.152 35.1978L116.696 60.6537ZM110.003 53.9608L135.459 28.505L124.915 17.9608H110.003V53.9608ZM69.8464 13.804H105.846V-1.10771L95.3022 -11.6519L69.8464 13.804ZM63.1536 60.6537H99.1536V7.11117H63.1536H27.1536V60.6537H63.1536ZM116.696 60.6537V24.6537H63.1536V60.6537V96.6537H116.696V60.6537ZM110.003 53.9608L84.5474 79.4167L91.2402 86.1095L116.696 60.6537L142.152 35.1978L135.459 28.505L110.003 53.9608ZM63.1536 7.11117L37.6978 32.567L44.3906 39.2598L69.8464 13.804L95.3022 -11.6519L88.6094 -18.3447L63.1536 7.11117ZM110.003 53.9608V17.9608C107.707 17.9608 105.846 16.0998 105.846 13.804H69.8464H33.8464C33.8464 55.8643 67.943 89.9608 110.003 89.9608V53.9608Z" fill="#808080" mask="url(#path-3-inside-1_103_36)"/>
<path d="M60.6536 60.6537H7.11111L13.8039 53.9608C35.9819 53.9608 53.9608 35.982 53.9608 13.804L60.6536 7.11117V60.6537Z" fill="url(#paint2_linear_103_36)"/>
<mask id="path-6-inside-2_103_36" fill="white">
<path d="M60.6536 63.1537V116.696L53.9608 110.003C53.9608 87.8253 35.9819 69.8465 13.8039 69.8465L7.11111 63.1537H60.6536Z"/>
</mask>
<path d="M60.6536 63.1537V116.696L53.9608 110.003C53.9608 87.8253 35.9819 69.8465 13.8039 69.8465L7.11111 63.1537H60.6536Z" fill="url(#paint3_linear_103_36)"/>
<path d="M60.6536 63.1537H108.654V15.1537H60.6536V63.1537ZM60.6536 116.696L26.7125 150.637L108.654 232.578V116.696H60.6536ZM7.11111 63.1537V15.1537H-108.771L-26.83 97.0948L7.11111 63.1537ZM13.8039 69.8465L-20.1372 103.788L-6.07832 117.846H13.8039V69.8465ZM53.9608 110.003H5.96078V129.886L20.0197 143.944L53.9608 110.003ZM60.6536 63.1537H12.6536V116.696H60.6536H108.654V63.1537H60.6536ZM7.11111 63.1537V111.154H60.6536V63.1537V15.1537H7.11111V63.1537ZM13.8039 69.8465L47.745 35.9053L41.0522 29.2125L7.11111 63.1537L-26.83 97.0948L-20.1372 103.788L13.8039 69.8465ZM60.6536 116.696L94.5947 82.755L87.9019 76.0622L53.9608 110.003L20.0197 143.944L26.7125 150.637L60.6536 116.696ZM13.8039 69.8465V117.846C9.47228 117.846 5.96078 114.335 5.96078 110.003H53.9608H101.961C101.961 61.3156 62.4916 21.8465 13.8039 21.8465V69.8465Z" fill="#808080" mask="url(#path-6-inside-2_103_36)"/>
<defs>
<linearGradient id="paint0_linear_103_36" x1="61.4804" y1="63.1537" x2="114.465" y2="114.465" gradientUnits="userSpaceOnUse">
<stop stop-color="#FF00EE"/>
<stop offset="0.658654" stop-color="#FF9D00"/>
</linearGradient>
<linearGradient id="paint1_linear_103_36" x1="63.1536" y1="62.3269" x2="114.465" y2="9.34211" gradientUnits="userSpaceOnUse">
<stop stop-color="#FF00EE"/>
<stop offset="0.658654" stop-color="#FF9D00"/>
</linearGradient>
<linearGradient id="paint2_linear_103_36" x1="62.3268" y1="60.6537" x2="9.34205" y2="9.34211" gradientUnits="userSpaceOnUse">
<stop stop-color="#FF00EE"/>
<stop offset="0.658654" stop-color="#FF9D00"/>
</linearGradient>
<linearGradient id="paint3_linear_103_36" x1="60.6536" y1="61.4805" x2="9.34205" y2="114.465" gradientUnits="userSpaceOnUse">
<stop stop-color="#FF00EE"/>
<stop offset="0.658654" stop-color="#FF9D00"/>
</linearGradient>
</defs>
</svg>
