<?xml version="1.0" encoding="UTF-8"?>
<svg xmlns="http://www.w3.org/2000/svg" width="1200" height="630" viewBox="0 0 1200 630" role="img" aria-label="Engineering Decision Docs">
  <defs>
    <linearGradient id="bg" x1="0" y1="0" x2="1" y2="1">
      <stop offset="0" stop-color="#09090B"/>
      <stop offset="0.55" stop-color="#0F172A"/>
      <stop offset="1" stop-color="#164E63"/>
    </linearGradient>

    <radialGradient id="glow" cx="28%" cy="24%" r="80%">
      <stop offset="0" stop-color="#67E8F9" stop-opacity="0.72"/>
      <stop offset="0.55" stop-color="#38BDF8" stop-opacity="0.16"/>
      <stop offset="1" stop-color="#38BDF8" stop-opacity="0"/>
    </radialGradient>

    <pattern id="grid" width="64" height="64" patternUnits="userSpaceOnUse">
      <path d="M 64 0 L 0 0 0 64" fill="none" stroke="rgba(255,255,255,0.12)" stroke-width="1"/>
    </pattern>

    <filter id="noise" x="-20%" y="-20%" width="140%" height="140%">
      <feTurbulence type="fractalNoise" baseFrequency="0.85" numOctaves="3" seed="41"/>
      <feColorMatrix type="matrix" values="
        1 0 0 0 0
        0 1 0 0 0
        0 0 1 0 0
        0 0 0 0.08 0" />
    </filter>

    <filter id="soft" x="-20%" y="-20%" width="140%" height="140%">
      <feGaussianBlur stdDeviation="14"/>
    </filter>

    <linearGradient id="accent" x1="0" y1="0" x2="1" y2="0">
      <stop offset="0" stop-color="#22D3EE"/>
      <stop offset="0.5" stop-color="#60A5FA"/>
      <stop offset="1" stop-color="#F59E0B"/>
    </linearGradient>
  </defs>

  <rect width="1200" height="630" fill="url(#bg)"/>
  <rect width="1200" height="630" fill="url(#glow)"/>
  <rect width="1200" height="630" fill="url(#grid)" opacity="0.58"/>

  <g opacity="0.92">
    <circle cx="914" cy="170" r="138" fill="rgba(255,255,255,0.10)" filter="url(#soft)"/>
    <circle cx="914" cy="170" r="86" fill="rgba(255,255,255,0.08)"/>
    <circle cx="914" cy="170" r="86" fill="none" stroke="rgba(255,255,255,0.24)" stroke-width="2"/>

    <rect x="172" y="148" width="284" height="170" rx="24" fill="rgba(255,255,255,0.08)"/>
    <rect x="216" y="188" width="196" height="18" rx="9" fill="rgba(255,255,255,0.22)"/>
    <rect x="216" y="226" width="152" height="14" rx="7" fill="rgba(255,255,255,0.14)"/>
    <rect x="216" y="254" width="178" height="14" rx="7" fill="rgba(255,255,255,0.14)"/>
  </g>

  <g fill="none" stroke-linecap="round">
    <path d="M 456 232 C 560 232, 588 180, 676 180" stroke="rgba(255,255,255,0.24)" stroke-width="2"/>
    <path d="M 456 232 C 564 232, 596 300, 694 300" stroke="rgba(255,255,255,0.24)" stroke-width="2"/>
    <path d="M 456 232 C 548 232, 588 410, 748 430" stroke="rgba(255,255,255,0.18)" stroke-width="2"/>
  </g>

  <g>
    <circle cx="710" cy="180" r="18" fill="#22D3EE"/>
    <circle cx="710" cy="180" r="34" fill="none" stroke="rgba(34,211,238,0.25)" stroke-width="2"/>

    <rect x="726" y="266" width="180" height="68" rx="18" fill="rgba(255,255,255,0.10)"/>
    <rect x="764" y="292" width="102" height="12" rx="6" fill="rgba(255,255,255,0.28)"/>

    <rect x="760" y="404" width="212" height="58" rx="18" fill="rgba(255,255,255,0.08)"/>
    <rect x="804" y="427" width="122" height="12" rx="6" fill="rgba(255,255,255,0.22)"/>
  </g>

  <path d="M 132 494 C 260 396, 400 568, 560 470 S 858 324, 1040 430" fill="none" stroke="url(#accent)" stroke-width="6" stroke-linecap="round" opacity="0.88"/>

  <rect width="1200" height="630" filter="url(#noise)"/>
</svg>
