<?xml version="1.0" encoding="UTF-8"?>
<svg xmlns="http://www.w3.org/2000/svg" width="1200" height="630" viewBox="0 0 1200 630" role="img" aria-label="Dharma and People-Pleasing">
  <defs>
    <linearGradient id="bg" x1="0" y1="0" x2="1" y2="1">
      <stop offset="0" stop-color="#09090B"/>
      <stop offset="0.55" stop-color="#3F1D2E"/>
      <stop offset="1" stop-color="#7C2D12"/>
    </linearGradient>

    <radialGradient id="glow" cx="36%" cy="28%" r="74%">
      <stop offset="0" stop-color="#F9A8D4" stop-opacity="0.72"/>
      <stop offset="0.55" stop-color="#FDBA74" stop-opacity="0.18"/>
      <stop offset="1" stop-color="#FDBA74" stop-opacity="0"/>
    </radialGradient>

    <pattern id="grid" width="72" height="72" patternUnits="userSpaceOnUse">
      <path d="M 72 0 L 0 0 0 72" fill="none" stroke="rgba(255,255,255,0.12)" stroke-width="1"/>
    </pattern>

    <filter id="noise" x="-20%" y="-20%" width="140%" height="140%">
      <feTurbulence type="fractalNoise" baseFrequency="0.88" numOctaves="3" seed="59"/>
      <feColorMatrix type="matrix" values="
        1 0 0 0 0
        0 1 0 0 0
        0 0 1 0 0
        0 0 0 0.08 0" />
    </filter>

    <filter id="soft" x="-20%" y="-20%" width="140%" height="140%">
      <feGaussianBlur stdDeviation="16"/>
    </filter>

    <linearGradient id="accent" x1="0" y1="0" x2="1" y2="0">
      <stop offset="0" stop-color="#FB7185"/>
      <stop offset="0.5" stop-color="#F59E0B"/>
      <stop offset="1" stop-color="#FDE68A"/>
    </linearGradient>
  </defs>

  <rect width="1200" height="630" fill="url(#bg)"/>
  <rect width="1200" height="630" fill="url(#glow)"/>
  <rect width="1200" height="630" fill="url(#grid)" opacity="0.56"/>

  <g opacity="0.94">
    <circle cx="888" cy="172" r="146" fill="rgba(255,255,255,0.10)" filter="url(#soft)"/>
    <circle cx="888" cy="172" r="88" fill="rgba(255,255,255,0.08)"/>
    <circle cx="888" cy="172" r="88" fill="none" stroke="rgba(255,255,255,0.22)" stroke-width="2"/>

    <path d="M 248 164 C 352 54, 536 62, 620 176 C 688 270, 632 394, 500 418 C 372 440, 240 320, 248 164 Z" fill="rgba(255,255,255,0.09)"/>
    <path d="M 248 164 C 352 54, 536 62, 620 176" fill="none" stroke="rgba(255,255,255,0.24)" stroke-width="2"/>
  </g>

  <g fill="none" stroke-linecap="round">
    <path d="M 308 464 C 404 384, 494 292, 602 214" stroke="rgba(255,255,255,0.18)" stroke-width="2"/>
    <path d="M 308 464 C 442 402, 552 412, 674 456" stroke="rgba(255,255,255,0.18)" stroke-width="2"/>
  </g>

  <g>
    <circle cx="648" cy="208" r="22" fill="#F59E0B"/>
    <circle cx="648" cy="208" r="44" fill="none" stroke="rgba(245,158,11,0.26)" stroke-width="2"/>

    <path d="M 648 250 L 648 384" fill="none" stroke="rgba(255,255,255,0.26)" stroke-width="3" stroke-linecap="round"/>
    <rect x="604" y="380" width="88" height="18" rx="9" fill="rgba(255,255,255,0.12)"/>
  </g>

  <path d="M 118 506 C 246 416, 382 574, 540 486 S 834 336, 1028 444" fill="none" stroke="url(#accent)" stroke-width="6" stroke-linecap="round" opacity="0.88"/>

  <rect width="1200" height="630" filter="url(#noise)"/>
</svg>
